<svg width="158" height="64" fill="none" xmlns="http://www.w3.org/2000/svg">
  <path d="M10.483 64V48.207c1.586 1.93 4.896 3.448 9.31 3.448 9.586 0 16.345-7.517 16.345-18 0-10.276-6-17.862-15.931-17.862-4.897 0-8.62 2.138-10.07 4.345V16.62H0V64h10.483zm15.379-30.276c0 5.724-3.655 8.552-7.793 8.552-4.069 0-7.724-2.897-7.724-8.552 0-5.724 3.655-8.483 7.724-8.483 4.138 0 7.793 2.759 7.793 8.483zm27.522 17.173V.966H42.901v49.93h10.483zm19.733 0V16.62H62.635v34.276h10.482zM61.738 6.137c0 3.38 2.759 6.139 6.07 6.139 3.447 0 6.206-2.759 6.206-6.138 0-3.38-2.759-6.138-6.207-6.138-3.31 0-6.069 2.759-6.069 6.138zm31.045 25.104c0-3.448 2.207-6 5.656-6 3.793 0 5.586 2.552 5.586 5.931v19.725h10.483V29.379c0-7.517-3.862-13.655-12.483-13.655-3.517 0-7.724 1.586-9.586 4.828V16.62H82.3v34.276h10.482V31.24zm65.016-14.62h-13.586l-10.414 11.517V.966h-10.483v49.93h10.483v-8.413l3.379-3.655 8.069 12.069h12.828L144.42 31.035l13.379-14.414z" fill="#fff"/>
</svg>
